<svg width="25" height="25" viewBox="0 0 25 25" fill="none" xmlns="http://www.w3.org/2000/svg">
<path fill-rule="evenodd" clip-rule="evenodd" d="M11.0069 2.12628C10.8872 1.63136 10.6349 1.17844 10.2769 0.816275C9.92558 0.462808 9.48769 0.207656 9.00693 0.0762751C8.62727 0.0113012 8.24167 -0.0121702 7.85693 0.00627515H3.23693C2.86507 -0.0107365 2.49251 0.0161152 2.12693 0.0862751C1.63029 0.201537 1.17624 0.454559 0.816932 0.816275C0.45618 1.17787 0.20041 1.63065 0.0769325 2.12628C0.0155272 2.49289 -0.00793007 2.86485 0.00693245 3.23628V7.85628C-0.0141004 8.24144 0.0127718 8.62773 0.0869325 9.00628C0.199921 9.50669 0.453137 9.96456 0.816932 10.3263C1.18492 10.666 1.63731 10.9009 2.12693 11.0063C2.49251 11.0764 2.86507 11.1033 3.23693 11.0863H7.85693C8.2421 11.1073 8.62839 11.0804 9.00693 11.0063C9.5058 10.8892 9.96262 10.6366 10.3269 10.2763C10.6594 9.91869 10.8936 9.48118 11.0069 9.00628C11.077 8.64407 11.1039 8.27482 11.0869 7.90628V3.23628C11.1039 2.86442 11.0771 2.49185 11.0069 2.12628ZM9.23693 7.75628C9.26214 8.01232 9.26214 8.27023 9.23693 8.52628C9.20982 8.70562 9.12972 8.87277 9.00693 9.00628C8.88652 9.1291 8.73409 9.21571 8.56693 9.25628C8.31049 9.27131 8.05338 9.27131 7.79693 9.25628H3.32693C3.07088 9.28148 2.81298 9.28148 2.55693 9.25628C2.39336 9.214 2.24459 9.12751 2.12693 9.00628C2.00086 8.88839 1.91366 8.73492 1.87693 8.56628C1.85537 8.31006 1.85537 8.05249 1.87693 7.79628V3.32628C1.85578 3.07004 1.85578 2.81251 1.87693 2.55628C1.92116 2.3906 2.00725 2.23908 2.12693 2.11628C2.24579 1.99869 2.39445 1.91572 2.55693 1.87628C2.81318 1.85557 3.07068 1.85557 3.32693 1.87628H7.75693C8.01316 1.85512 8.2707 1.85512 8.52693 1.87628C8.70838 1.9096 8.87562 1.9967 9.00693 2.12628C9.12736 2.24456 9.21372 2.39309 9.25693 2.55628C9.27163 2.81273 9.27163 3.06982 9.25693 3.32628L9.23693 7.75628Z" fill="#B3B3B3"/>
<path fill-rule="evenodd" clip-rule="evenodd" d="M23.9269 2.12627C23.812 1.63477 23.5649 1.18403 23.2124 0.822732C22.8599 0.461435 22.4154 0.203319 21.9269 0.0762699C21.5471 0.0124446 21.1616 -0.0110194 20.7769 0.00626985H16.1569C15.7718 -0.0134561 15.3856 0.013405 15.0069 0.0862698C14.5103 0.201531 14.0562 0.454554 13.6969 0.81627C13.3535 1.18311 13.1152 1.6356 13.0069 2.12627C12.9368 2.49184 12.9099 2.86441 12.9269 3.23627V7.85627C12.9059 8.24144 12.9328 8.62772 13.0069 9.00627C13.1259 9.49049 13.3751 9.9329 13.7277 10.2855C14.0803 10.6381 14.5227 10.8873 15.0069 11.0063C15.3726 11.076 15.7451 11.1028 16.1169 11.0863H20.7369C21.1221 11.106 21.5082 11.0791 21.8869 11.0063C22.3818 10.8866 22.8347 10.6342 23.1969 10.2763C23.5475 9.92434 23.7993 9.48633 23.9269 9.00627C24.0011 8.62772 24.0279 8.24144 24.0069 7.85627V3.23627C24.0239 2.86441 23.9971 2.49184 23.9269 2.12627ZM22.1569 7.75627C22.1716 8.01273 22.1716 8.26981 22.1569 8.52627C22.1104 8.69064 22.0226 8.84036 21.9018 8.96114C21.781 9.08193 21.6313 9.16977 21.4669 9.21627C21.2138 9.23118 20.96 9.23118 20.7069 9.21627H16.2469C15.9942 9.2418 15.7396 9.2418 15.4869 9.21627C15.3098 9.19484 15.1429 9.12181 15.0069 9.00627C14.8841 8.88586 14.7975 8.73342 14.7569 8.56627C14.7419 8.30982 14.7419 8.05272 14.7569 7.79627V3.32627C14.7358 3.07004 14.7358 2.8125 14.7569 2.55627C14.8011 2.39059 14.8872 2.23908 15.0069 2.11627C15.1282 1.99666 15.2807 1.91351 15.4469 1.87627C15.6998 1.85484 15.954 1.85484 16.2069 1.87627H20.6469C20.9032 1.85556 21.1607 1.85556 21.4169 1.87627C21.5783 1.92333 21.7252 2.01031 21.844 2.12916C21.9629 2.24802 22.0499 2.39491 22.0969 2.55627C22.1181 2.8125 22.1181 3.07004 22.0969 3.32627L22.1569 7.75627Z" fill="#CDCCCC"/>
<path fill-rule="evenodd" clip-rule="evenodd" d="M11.0069 15.0063C10.888 14.5221 10.6387 14.0796 10.2861 13.7271C9.93357 13.3745 9.49117 13.1252 9.00694 13.0063C8.64473 12.9362 8.27548 12.9093 7.90694 12.9263H3.23694C2.86508 12.9093 2.49252 12.9361 2.12694 13.0063C1.63202 13.126 1.17911 13.3784 0.816941 13.7363C0.461639 14.0846 0.209078 14.524 0.0869412 15.0063C0.0140764 15.385 -0.0127847 15.7711 0.00694124 16.1563V20.7763C-0.0075691 21.1477 0.0158859 21.5196 0.0769412 21.8863C0.20399 22.3748 0.462106 22.8193 0.823403 23.1718C1.1847 23.5243 1.63545 23.7713 2.12694 23.8863C2.49092 23.9699 2.86351 24.0101 3.23694 24.0063H7.85694C8.24211 24.0273 8.6284 24.0004 9.00694 23.9263C9.50488 23.8068 9.96109 23.5546 10.3269 23.1963C10.6667 22.8283 10.9015 22.3759 11.0069 21.8863C11.0766 21.5206 11.1035 21.1481 11.0869 20.7763V16.1563C11.1067 15.7711 11.0798 15.385 11.0069 15.0063ZM9.23694 20.6863C9.25185 20.9394 9.25185 21.1932 9.23694 21.4463C9.19044 21.6106 9.1026 21.7604 8.98182 21.8812C8.86103 22.0019 8.71131 22.0898 8.54694 22.1363C8.29048 22.151 8.0334 22.151 7.77694 22.1363H3.32694C3.07071 22.1574 2.81317 22.1574 2.55694 22.1363C2.39558 22.0892 2.24869 22.0022 2.12983 21.8834C2.01098 21.7645 1.924 21.6176 1.87694 21.4563C1.85623 21.2 1.85623 20.9425 1.87694 20.6863V16.2463C1.85507 15.9934 1.85507 15.7391 1.87694 15.4863C1.90575 15.3033 1.99354 15.1348 2.12694 15.0063C2.24523 14.8858 2.39376 14.7995 2.55694 14.7563C2.81317 14.7351 3.07071 14.7351 3.32694 14.7563H7.75694C8.01339 14.7412 8.27049 14.7412 8.52694 14.7563C8.70839 14.7896 8.87562 14.8767 9.00694 15.0063C9.12655 15.1276 9.2097 15.28 9.24694 15.4463C9.27247 15.699 9.27247 15.9536 9.24694 16.2063L9.23694 20.6863Z" fill="#B3B3B3"/>
<path fill-rule="evenodd" clip-rule="evenodd" d="M23.9269 15.0063C23.807 14.5225 23.5574 14.0807 23.2049 13.7283C22.8525 13.3759 22.4107 13.1262 21.9269 13.0063C21.5613 12.9366 21.1888 12.9097 20.8169 12.9263H16.1569C15.7718 12.9066 15.3856 12.9334 15.0069 13.0063C14.5232 13.1262 14.0813 13.3759 13.7289 13.7283C13.3765 14.0807 13.1269 14.5225 13.0069 15.0063C12.9372 15.3719 12.9104 15.7444 12.9269 16.1163V20.7363C12.9072 21.1214 12.9341 21.5076 13.0069 21.8863C13.1269 22.37 13.3765 22.8119 13.7289 23.1643C14.0813 23.5167 14.5232 23.7663 15.0069 23.8863C15.3726 23.956 15.7451 23.9828 16.1169 23.9663H20.7369C21.1088 23.9828 21.4813 23.956 21.8469 23.8863C22.3436 23.771 22.7976 23.518 23.1569 23.1563C23.5148 22.7941 23.7672 22.3412 23.8869 21.8463C23.9674 21.4953 24.0077 21.1364 24.0069 20.7763V16.1563C24.0266 15.7711 23.9998 15.385 23.9269 15.0063ZM22.1569 20.6463C22.1713 20.9027 22.1713 21.1598 22.1569 21.4163C22.1137 21.5795 22.0274 21.728 21.9069 21.8463C21.7865 21.9691 21.6341 22.0557 21.4669 22.0963C21.214 22.1177 20.9598 22.1177 20.7069 22.0963H16.2469C15.9938 22.1112 15.74 22.1112 15.4869 22.0963C15.3226 22.0498 15.1728 21.9619 15.052 21.8412C14.9313 21.7204 14.8434 21.5707 14.7969 21.4063C14.7817 21.1532 14.7817 20.8994 14.7969 20.6463V16.2463C14.7755 15.9934 14.7755 15.7392 14.7969 15.4863C14.8434 15.3219 14.9313 15.1722 15.052 15.0514C15.1728 14.9306 15.3226 14.8428 15.4869 14.7963C15.74 14.7814 15.9938 14.7814 16.2469 14.7963H20.6869C20.9432 14.7756 21.2007 14.7756 21.4569 14.7963C21.6201 14.8395 21.7686 14.9259 21.8869 15.0463C22.0097 15.1667 22.0964 15.3191 22.1369 15.4863C22.1584 15.7392 22.1584 15.9934 22.1369 16.2463L22.1569 20.6463Z" fill="#B3B3B3"/>
</svg>
